<?xml version="1.0" standalone="no"?>
<!DOCTYPE svg PUBLIC "-//W3C//DTD SVG 1.1//EN" "http://www.w3.org/Graphics/SVG/1.1/DTD/svg11.dtd">
<svg version="1.1" width="1200" height="982" onload="init(evt)" viewBox="0 0 1200 982" xmlns="http://www.w3.org/2000/svg" xmlns:xlink="http://www.w3.org/1999/xlink">
<!-- Flame graph stack visualization. See https://github.com/brendangregg/FlameGraph for latest version, and http://www.brendangregg.com/flamegraphs.html for examples. -->
<!-- NOTES:  -->
<defs>
	<linearGradient id="background" y1="0" y2="1" x1="0" x2="0" >
		<stop stop-color="#eeeeee" offset="5%" />
		<stop stop-color="#eeeeb0" offset="95%" />
	</linearGradient>
</defs>
<style type="text/css">
	text { font-family:Verdana; font-size:12px; fill:rgb(0,0,0); }
	#search, #ignorecase { opacity:0.1; cursor:pointer; }
	#search:hover, #search.show, #ignorecase:hover, #ignorecase.show { opacity:1; }
	#subtitle { text-anchor:middle; font-color:rgb(160,160,160); }
	#title { text-anchor:middle; font-size:17px}
	#unzoom { cursor:pointer; }
	#frames > *:hover { stroke:black; stroke-width:0.5; cursor:pointer; }
	.hide { display:none; }
	.parent { opacity:0.5; }
</style>
<script type="text/ecmascript">
<![CDATA[
	"use strict";
	var details, searchbtn, unzoombtn, matchedtxt, svg, searching, currentSearchTerm, ignorecase, ignorecaseBtn;
	function init(evt) {
		details = document.getElementById("details").firstChild;
		searchbtn = document.getElementById("search");
		ignorecaseBtn = document.getElementById("ignorecase");
		unzoombtn = document.getElementById("unzoom");
		matchedtxt = document.getElementById("matched");
		svg = document.getElementsByTagName("svg")[0];
		searching = 0;
		currentSearchTerm = null;

		// use GET parameters to restore a flamegraphs state.
		var params = get_params();
		if (params.x && params.y)
			zoom(find_group(document.querySelector('[x="' + params.x + '"][y="' + params.y + '"]')));
                if (params.s) search(params.s);
	}

	// event listeners
	window.addEventListener("click", function(e) {
		var target = find_group(e.target);
		if (target) {
			if (target.nodeName == "a") {
				if (e.ctrlKey === false) return;
				e.preventDefault();
			}
			if (target.classList.contains("parent")) unzoom();
			zoom(target);
			if (!document.querySelector('.parent')) {
				clearzoom();
				return;
			}

			// set parameters for zoom state
			var el = target.querySelector("rect");
			if (el && el.attributes && el.attributes.y && el.attributes._orig_x) {
				var params = get_params()
				params.x = el.attributes._orig_x.value;
				params.y = el.attributes.y.value;
				history.replaceState(null, null, parse_params(params));
			}
		}
		else if (e.target.id == "unzoom") clearzoom();
		else if (e.target.id == "search") search_prompt();
		else if (e.target.id == "ignorecase") toggle_ignorecase();
	}, false)

	// mouse-over for info
	// show
	window.addEventListener("mouseover", function(e) {
		var target = find_group(e.target);
		if (target) details.nodeValue = "Function: " + g_to_text(target);
	}, false)

	// clear
	window.addEventListener("mouseout", function(e) {
		var target = find_group(e.target);
		if (target) details.nodeValue = ' ';
	}, false)

	// ctrl-F for search
	// ctrl-I to toggle case-sensitive search
	window.addEventListener("keydown",function (e) {
		if (e.keyCode === 114 || (e.ctrlKey && e.keyCode === 70)) {
			e.preventDefault();
			search_prompt();
		}
		else if (e.ctrlKey && e.keyCode === 73) {
			e.preventDefault();
			toggle_ignorecase();
		}
	}, false)

	// functions
	function get_params() {
		var params = {};
		var paramsarr = window.location.search.substr(1).split('&');
		for (var i = 0; i < paramsarr.length; ++i) {
			var tmp = paramsarr[i].split("=");
			if (!tmp[0] || !tmp[1]) continue;
			params[tmp[0]]  = decodeURIComponent(tmp[1]);
		}
		return params;
	}
	function parse_params(params) {
		var uri = "?";
		for (var key in params) {
			uri += key + '=' + encodeURIComponent(params[key]) + '&';
		}
		if (uri.slice(-1) == "&")
			uri = uri.substring(0, uri.length - 1);
		if (uri == '?')
			uri = window.location.href.split('?')[0];
		return uri;
	}
	function find_child(node, selector) {
		var children = node.querySelectorAll(selector);
		if (children.length) return children[0];
	}
	function find_group(node) {
		var parent = node.parentElement;
		if (!parent) return;
		if (parent.id == "frames") return node;
		return find_group(parent);
	}
	function orig_save(e, attr, val) {
		if (e.attributes["_orig_" + attr] != undefined) return;
		if (e.attributes[attr] == undefined) return;
		if (val == undefined) val = e.attributes[attr].value;
		e.setAttribute("_orig_" + attr, val);
	}
	function orig_load(e, attr) {
		if (e.attributes["_orig_"+attr] == undefined) return;
		e.attributes[attr].value = e.attributes["_orig_" + attr].value;
		e.removeAttribute("_orig_"+attr);
	}
	function g_to_text(e) {
		var text = find_child(e, "title").firstChild.nodeValue;
		return (text)
	}
	function g_to_func(e) {
		var func = g_to_text(e);
		// if there's any manipulation we want to do to the function
		// name before it's searched, do it here before returning.
		return (func);
	}
	function update_text(e) {
		var r = find_child(e, "rect");
		var t = find_child(e, "text");
		var w = parseFloat(r.attributes.width.value) -3;
		var txt = find_child(e, "title").textContent.replace(/\([^(]*\)$/,"");
		t.attributes.x.value = parseFloat(r.attributes.x.value) + 3;

		// Smaller than this size won't fit anything
		if (w < 2 * 12 * 0.59) {
			t.textContent = "";
			return;
		}

		t.textContent = txt;
		// Fit in full text width
		if (/^ *$/.test(txt) || t.getSubStringLength(0, txt.length) < w)
			return;

		for (var x = txt.length - 2; x > 0; x--) {
			if (t.getSubStringLength(0, x + 2) <= w) {
				t.textContent = txt.substring(0, x) + "..";
				return;
			}
		}
		t.textContent = "";
	}

	// zoom
	function zoom_reset(e) {
		if (e.attributes != undefined) {
			orig_load(e, "x");
			orig_load(e, "width");
		}
		if (e.childNodes == undefined) return;
		for (var i = 0, c = e.childNodes; i < c.length; i++) {
			zoom_reset(c[i]);
		}
	}
	function zoom_child(e, x, ratio) {
		if (e.attributes != undefined) {
			if (e.attributes.x != undefined) {
				orig_save(e, "x");
				e.attributes.x.value = (parseFloat(e.attributes.x.value) - x - 10) * ratio + 10;
				if (e.tagName == "text")
					e.attributes.x.value = find_child(e.parentNode, "rect[x]").attributes.x.value + 3;
			}
			if (e.attributes.width != undefined) {
				orig_save(e, "width");
				e.attributes.width.value = parseFloat(e.attributes.width.value) * ratio;
			}
		}

		if (e.childNodes == undefined) return;
		for (var i = 0, c = e.childNodes; i < c.length; i++) {
			zoom_child(c[i], x - 10, ratio);
		}
	}
	function zoom_parent(e) {
		if (e.attributes) {
			if (e.attributes.x != undefined) {
				orig_save(e, "x");
				e.attributes.x.value = 10;
			}
			if (e.attributes.width != undefined) {
				orig_save(e, "width");
				e.attributes.width.value = parseInt(svg.width.baseVal.value) - (10 * 2);
			}
		}
		if (e.childNodes == undefined) return;
		for (var i = 0, c = e.childNodes; i < c.length; i++) {
			zoom_parent(c[i]);
		}
	}
	function zoom(node) {
		var attr = find_child(node, "rect").attributes;
		var width = parseFloat(attr.width.value);
		var xmin = parseFloat(attr.x.value);
		var xmax = parseFloat(xmin + width);
		var ymin = parseFloat(attr.y.value);
		var ratio = (svg.width.baseVal.value - 2 * 10) / width;

		// XXX: Workaround for JavaScript float issues (fix me)
		var fudge = 0.0001;

		unzoombtn.classList.remove("hide");

		var el = document.getElementById("frames").children;
		for (var i = 0; i < el.length; i++) {
			var e = el[i];
			var a = find_child(e, "rect").attributes;
			var ex = parseFloat(a.x.value);
			var ew = parseFloat(a.width.value);
			var upstack;
			// Is it an ancestor
			if (0 == 0) {
				upstack = parseFloat(a.y.value) > ymin;
			} else {
				upstack = parseFloat(a.y.value) < ymin;
			}
			if (upstack) {
				// Direct ancestor
				if (ex <= xmin && (ex+ew+fudge) >= xmax) {
					e.classList.add("parent");
					zoom_parent(e);
					update_text(e);
				}
				// not in current path
				else
					e.classList.add("hide");
			}
			// Children maybe
			else {
				// no common path
				if (ex < xmin || ex + fudge >= xmax) {
					e.classList.add("hide");
				}
				else {
					zoom_child(e, xmin, ratio);
					update_text(e);
				}
			}
		}
		search();
	}
	function unzoom() {
		unzoombtn.classList.add("hide");
		var el = document.getElementById("frames").children;
		for(var i = 0; i < el.length; i++) {
			el[i].classList.remove("parent");
			el[i].classList.remove("hide");
			zoom_reset(el[i]);
			update_text(el[i]);
		}
		search();
	}
	function clearzoom() {
		unzoom();

		// remove zoom state
		var params = get_params();
		if (params.x) delete params.x;
		if (params.y) delete params.y;
		history.replaceState(null, null, parse_params(params));
	}

	// search
	function toggle_ignorecase() {
		ignorecase = !ignorecase;
		if (ignorecase) {
			ignorecaseBtn.classList.add("show");
		} else {
			ignorecaseBtn.classList.remove("show");
		}
		reset_search();
		search();
	}
	function reset_search() {
		var el = document.querySelectorAll("#frames rect");
		for (var i = 0; i < el.length; i++) {
			orig_load(el[i], "fill")
		}
		var params = get_params();
		delete params.s;
		history.replaceState(null, null, parse_params(params));
	}
	function search_prompt() {
		if (!searching) {
			var term = prompt("Enter a search term (regexp " +
			    "allowed, eg: ^ext4_)"
			    + (ignorecase ? ", ignoring case" : "")
			    + "\nPress Ctrl-i to toggle case sensitivity", "");
			if (term != null) search(term);
		} else {
			reset_search();
			searching = 0;
			currentSearchTerm = null;
			searchbtn.classList.remove("show");
			searchbtn.firstChild.nodeValue = "Search"
			matchedtxt.classList.add("hide");
			matchedtxt.firstChild.nodeValue = ""
		}
	}
	function search(term) {
		if (term) currentSearchTerm = term;

		var re = new RegExp(currentSearchTerm, ignorecase ? 'i' : '');
		var el = document.getElementById("frames").children;
		var matches = new Object();
		var maxwidth = 0;
		for (var i = 0; i < el.length; i++) {
			var e = el[i];
			var func = g_to_func(e);
			var rect = find_child(e, "rect");
			if (func == null || rect == null)
				continue;

			// Save max width. Only works as we have a root frame
			var w = parseFloat(rect.attributes.width.value);
			if (w > maxwidth)
				maxwidth = w;

			if (func.match(re)) {
				// highlight
				var x = parseFloat(rect.attributes.x.value);
				orig_save(rect, "fill");
				rect.attributes.fill.value = "rgb(230,0,230)";

				// remember matches
				if (matches[x] == undefined) {
					matches[x] = w;
				} else {
					if (w > matches[x]) {
						// overwrite with parent
						matches[x] = w;
					}
				}
				searching = 1;
			}
		}
		if (!searching)
			return;
		var params = get_params();
		params.s = currentSearchTerm;
		history.replaceState(null, null, parse_params(params));

		searchbtn.classList.add("show");
		searchbtn.firstChild.nodeValue = "Reset Search";

		// calculate percent matched, excluding vertical overlap
		var count = 0;
		var lastx = -1;
		var lastw = 0;
		var keys = Array();
		for (k in matches) {
			if (matches.hasOwnProperty(k))
				keys.push(k);
		}
		// sort the matched frames by their x location
		// ascending, then width descending
		keys.sort(function(a, b){
			return a - b;
		});
		// Step through frames saving only the biggest bottom-up frames
		// thanks to the sort order. This relies on the tree property
		// where children are always smaller than their parents.
		var fudge = 0.0001;	// JavaScript floating point
		for (var k in keys) {
			var x = parseFloat(keys[k]);
			var w = matches[keys[k]];
			if (x >= lastx + lastw - fudge) {
				count += w;
				lastx = x;
				lastw = w;
			}
		}
		// display matched percent
		matchedtxt.classList.remove("hide");
		var pct = 100 * count / maxwidth;
		if (pct != 100) pct = pct.toFixed(1)
		matchedtxt.firstChild.nodeValue = "Matched: " + pct + "%";
	}
]]>
</script>
<rect x="0.0" y="0" width="1200.0" height="982.0" fill="url(#background)"  />
<text id="title" x="600.00" y="24" >Flame Graph</text>
<text id="details" x="10.00" y="965" > </text>
<text id="unzoom" x="10.00" y="24" class="hide">Reset Zoom</text>
<text id="search" x="1090.00" y="24" >Search</text>
<text id="ignorecase" x="1174.00" y="24" >ic</text>
<text id="matched" x="1090.00" y="965" > </text>
<g id="frames">
<g >
<title>[kube-apiserver] (21 samples, 95.45%)</title><rect x="63.6" y="805" width="1126.4" height="15.0" fill="rgb(250,187,7)" rx="2" ry="2" />
<text  x="66.64" y="815.5" >[kube-apiserver]</text>
</g>
<g >
<title>__schedule (4 samples, 18.18%)</title><rect x="975.5" y="565" width="214.5" height="15.0" fill="rgb(231,86,29)" rx="2" ry="2" />
<text  x="978.45" y="575.5" >__schedule</text>
</g>
<g >
<title>[kube-apiserver] (2 samples, 9.09%)</title><rect x="439.1" y="645" width="107.3" height="15.0" fill="rgb(218,124,35)" rx="2" ry="2" />
<text  x="442.09" y="655.5" >[kube-apiserv..</text>
</g>
<g >
<title>[kube-apiserver] (6 samples, 27.27%)</title><rect x="385.5" y="709" width="321.8" height="15.0" fill="rgb(212,190,0)" rx="2" ry="2" />
<text  x="388.45" y="719.5" >[kube-apiserver]</text>
</g>
<g >
<title>__tcp_transmit_skb (1 samples, 4.55%)</title><rect x="868.2" y="501" width="53.6" height="15.0" fill="rgb(239,2,31)" rx="2" ry="2" />
<text  x="871.18" y="511.5" >__tcp..</text>
</g>
<g >
<title>tcp_sendmsg_locked (1 samples, 4.55%)</title><rect x="868.2" y="565" width="53.6" height="15.0" fill="rgb(209,109,12)" rx="2" ry="2" />
<text  x="871.18" y="575.5" >tcp_s..</text>
</g>
<g >
<title>[kube-apiserver] (10 samples, 45.45%)</title><rect x="385.5" y="725" width="536.3" height="15.0" fill="rgb(205,58,38)" rx="2" ry="2" />
<text  x="388.45" y="735.5" >[kube-apiserver]</text>
</g>
<g >
<title>schedule_hrtimeout_range (1 samples, 4.55%)</title><rect x="760.9" y="597" width="53.6" height="15.0" fill="rgb(236,72,32)" rx="2" ry="2" />
<text  x="763.91" y="607.5" >sched..</text>
</g>
<g >
<title>ip_queue_xmit (1 samples, 4.55%)</title><rect x="868.2" y="485" width="53.6" height="15.0" fill="rgb(223,143,25)" rx="2" ry="2" />
<text  x="871.18" y="495.5" >ip_qu..</text>
</g>
<g >
<title>[kube-apiserver] (22 samples, 100.00%)</title><rect x="10.0" y="869" width="1180.0" height="15.0" fill="rgb(229,81,8)" rx="2" ry="2" />
<text  x="13.00" y="879.5" >[kube-apiserver]</text>
</g>
<g >
<title>ip_finish_output2 (1 samples, 4.55%)</title><rect x="868.2" y="389" width="53.6" height="15.0" fill="rgb(233,75,9)" rx="2" ry="2" />
<text  x="871.18" y="399.5" >ip_fi..</text>
</g>
<g >
<title>_raw_spin_unlock_irqrestore (1 samples, 4.55%)</title><rect x="868.2" y="277" width="53.6" height="15.0" fill="rgb(222,208,31)" rx="2" ry="2" />
<text  x="871.18" y="287.5" >_raw_..</text>
</g>
<g >
<title>__netif_rx (1 samples, 4.55%)</title><rect x="868.2" y="309" width="53.6" height="15.0" fill="rgb(243,131,7)" rx="2" ry="2" />
<text  x="871.18" y="319.5" >__net..</text>
</g>
<g >
<title>ksys_write (1 samples, 4.55%)</title><rect x="868.2" y="645" width="53.6" height="15.0" fill="rgb(236,154,5)" rx="2" ry="2" />
<text  x="871.18" y="655.5" >ksys_..</text>
</g>
<g >
<title>do_epoll_wait (3 samples, 13.64%)</title><rect x="707.3" y="629" width="160.9" height="15.0" fill="rgb(217,27,42)" rx="2" ry="2" />
<text  x="710.27" y="639.5" >do_epoll_wait</text>
</g>
<g >
<title>__x64_sys_epoll_pwait (1 samples, 4.55%)</title><rect x="439.1" y="517" width="53.6" height="15.0" fill="rgb(251,95,31)" rx="2" ry="2" />
<text  x="442.09" y="527.5" >__x64..</text>
</g>
<g >
<title>do_epoll_pwait.part.0 (1 samples, 4.55%)</title><rect x="439.1" y="501" width="53.6" height="15.0" fill="rgb(247,119,27)" rx="2" ry="2" />
<text  x="442.09" y="511.5" >do_ep..</text>
</g>
<g >
<title>ip_rcv (1 samples, 4.55%)</title><rect x="492.7" y="117" width="53.7" height="15.0" fill="rgb(235,53,45)" rx="2" ry="2" />
<text  x="495.73" y="127.5" >ip_rcv</text>
</g>
<g >
<title>sysvec_hyperv_stimer0 (1 samples, 4.55%)</title><rect x="546.4" y="677" width="53.6" height="15.0" fill="rgb(229,199,51)" rx="2" ry="2" />
<text  x="549.36" y="687.5" >sysve..</text>
</g>
<g >
<title>select_estimate_accuracy (1 samples, 4.55%)</title><rect x="814.5" y="597" width="53.7" height="15.0" fill="rgb(215,0,45)" rx="2" ry="2" />
<text  x="817.55" y="607.5" >selec..</text>
</g>
<g >
<title>[kube-apiserver] (21 samples, 95.45%)</title><rect x="63.6" y="837" width="1126.4" height="15.0" fill="rgb(247,92,13)" rx="2" ry="2" />
<text  x="66.64" y="847.5" >[kube-apiserver]</text>
</g>
<g >
<title>ep_poll (4 samples, 18.18%)</title><rect x="975.5" y="629" width="214.5" height="15.0" fill="rgb(229,7,49)" rx="2" ry="2" />
<text  x="978.45" y="639.5" >ep_poll</text>
</g>
<g >
<title>all (22 samples, 100%)</title><rect x="10.0" y="933" width="1180.0" height="15.0" fill="rgb(229,97,32)" rx="2" ry="2" />
<text  x="13.00" y="943.5" ></text>
</g>
<g >
<title>__irq_exit_rcu (1 samples, 4.55%)</title><rect x="546.4" y="645" width="53.6" height="15.0" fill="rgb(224,35,53)" rx="2" ry="2" />
<text  x="549.36" y="655.5" >__irq..</text>
</g>
<g >
<title>inet_sendmsg (1 samples, 4.55%)</title><rect x="868.2" y="597" width="53.6" height="15.0" fill="rgb(230,226,23)" rx="2" ry="2" />
<text  x="871.18" y="607.5" >inet_..</text>
</g>
<g >
<title>do_epoll_pwait.part.0 (3 samples, 13.64%)</title><rect x="707.3" y="645" width="160.9" height="15.0" fill="rgb(238,76,33)" rx="2" ry="2" />
<text  x="710.27" y="655.5" >do_epoll_pwait.part.0</text>
</g>
<g >
<title>__schedule (1 samples, 4.55%)</title><rect x="760.9" y="549" width="53.6" height="15.0" fill="rgb(217,169,19)" rx="2" ry="2" />
<text  x="763.91" y="559.5" >__sch..</text>
</g>
<g >
<title>schedule_hrtimeout_range (1 samples, 4.55%)</title><rect x="439.1" y="453" width="53.6" height="15.0" fill="rgb(210,159,28)" rx="2" ry="2" />
<text  x="442.09" y="463.5" >sched..</text>
</g>
<g >
<title>__ip_queue_xmit (1 samples, 4.55%)</title><rect x="868.2" y="469" width="53.6" height="15.0" fill="rgb(241,153,28)" rx="2" ry="2" />
<text  x="871.18" y="479.5" >__ip_..</text>
</g>
<g >
<title>ip_local_out (1 samples, 4.55%)</title><rect x="492.7" y="373" width="53.7" height="15.0" fill="rgb(223,96,35)" rx="2" ry="2" />
<text  x="495.73" y="383.5" >ip_lo..</text>
</g>
<g >
<title>do_syscall_64 (2 samples, 9.09%)</title><rect x="600.0" y="677" width="107.3" height="15.0" fill="rgb(212,171,36)" rx="2" ry="2" />
<text  x="603.00" y="687.5" >do_syscall_64</text>
</g>
<g >
<title>tcp_sendmsg_locked (1 samples, 4.55%)</title><rect x="492.7" y="485" width="53.7" height="15.0" fill="rgb(235,52,40)" rx="2" ry="2" />
<text  x="495.73" y="495.5" >tcp_s..</text>
</g>
<g >
<title>[kube-apiserver] (1 samples, 4.55%)</title><rect x="439.1" y="613" width="53.6" height="15.0" fill="rgb(229,50,39)" rx="2" ry="2" />
<text  x="442.09" y="623.5" >[kube..</text>
</g>
<g >
<title>dev_hard_start_xmit (1 samples, 4.55%)</title><rect x="868.2" y="341" width="53.6" height="15.0" fill="rgb(225,192,3)" rx="2" ry="2" />
<text  x="871.18" y="351.5" >dev_h..</text>
</g>
<g >
<title>entry_SYSCALL_64_after_hwframe (4 samples, 18.18%)</title><rect x="707.3" y="709" width="214.5" height="15.0" fill="rgb(244,35,39)" rx="2" ry="2" />
<text  x="710.27" y="719.5" >entry_SYSCALL_64_after_hwframe</text>
</g>
<g >
<title>x64_sys_call (1 samples, 4.55%)</title><rect x="492.7" y="597" width="53.7" height="15.0" fill="rgb(225,167,23)" rx="2" ry="2" />
<text  x="495.73" y="607.5" >x64_s..</text>
</g>
<g >
<title>futex_wake (2 samples, 9.09%)</title><rect x="600.0" y="613" width="107.3" height="15.0" fill="rgb(243,201,16)" rx="2" ry="2" />
<text  x="603.00" y="623.5" >futex_wake</text>
</g>
<g >
<title>ksys_write (1 samples, 4.55%)</title><rect x="492.7" y="565" width="53.7" height="15.0" fill="rgb(225,12,2)" rx="2" ry="2" />
<text  x="495.73" y="575.5" >ksys_..</text>
</g>
<g >
<title>__x64_sys_write (1 samples, 4.55%)</title><rect x="868.2" y="661" width="53.6" height="15.0" fill="rgb(233,145,46)" rx="2" ry="2" />
<text  x="871.18" y="671.5" >__x64..</text>
</g>
<g >
<title>__schedule (1 samples, 4.55%)</title><rect x="439.1" y="405" width="53.6" height="15.0" fill="rgb(231,17,30)" rx="2" ry="2" />
<text  x="442.09" y="415.5" >__sch..</text>
</g>
<g >
<title>entry_SYSCALL_64_after_hwframe (2 samples, 9.09%)</title><rect x="600.0" y="693" width="107.3" height="15.0" fill="rgb(221,10,23)" rx="2" ry="2" />
<text  x="603.00" y="703.5" >entry_SYSCALL..</text>
</g>
<g >
<title>__ip_finish_output (1 samples, 4.55%)</title><rect x="492.7" y="325" width="53.7" height="15.0" fill="rgb(249,114,1)" rx="2" ry="2" />
<text  x="495.73" y="335.5" >__ip_..</text>
</g>
<g >
<title>inet6_sendmsg (1 samples, 4.55%)</title><rect x="492.7" y="517" width="53.7" height="15.0" fill="rgb(241,26,35)" rx="2" ry="2" />
<text  x="495.73" y="527.5" >inet6..</text>
</g>
<g >
<title>[kube-apiserver] (1 samples, 4.55%)</title><rect x="439.1" y="629" width="53.6" height="15.0" fill="rgb(236,203,47)" rx="2" ry="2" />
<text  x="442.09" y="639.5" >[kube..</text>
</g>
<g >
<title>schedule_hrtimeout_range_clock (1 samples, 4.55%)</title><rect x="760.9" y="581" width="53.6" height="15.0" fill="rgb(244,175,32)" rx="2" ry="2" />
<text  x="763.91" y="591.5" >sched..</text>
</g>
<g >
<title>x64_sys_call (4 samples, 18.18%)</title><rect x="975.5" y="693" width="214.5" height="15.0" fill="rgb(216,58,9)" rx="2" ry="2" />
<text  x="978.45" y="703.5" >x64_sys_call</text>
</g>
<g >
<title>ip_output (1 samples, 4.55%)</title><rect x="492.7" y="357" width="53.7" height="15.0" fill="rgb(235,170,22)" rx="2" ry="2" />
<text  x="495.73" y="367.5" >ip_ou..</text>
</g>
<g >
<title>ip_output (1 samples, 4.55%)</title><rect x="868.2" y="437" width="53.6" height="15.0" fill="rgb(213,98,11)" rx="2" ry="2" />
<text  x="871.18" y="447.5" >ip_ou..</text>
</g>
<g >
<title>[kube-apiserver] (20 samples, 90.91%)</title><rect x="117.3" y="789" width="1072.7" height="15.0" fill="rgb(231,63,37)" rx="2" ry="2" />
<text  x="120.27" y="799.5" >[kube-apiserver]</text>
</g>
<g >
<title>tcp_add_backlog (1 samples, 4.55%)</title><rect x="492.7" y="37" width="53.7" height="15.0" fill="rgb(227,149,49)" rx="2" ry="2" />
<text  x="495.73" y="47.5" >tcp_a..</text>
</g>
<g >
<title>ip_finish_output (1 samples, 4.55%)</title><rect x="868.2" y="421" width="53.6" height="15.0" fill="rgb(247,228,40)" rx="2" ry="2" />
<text  x="871.18" y="431.5" >ip_fi..</text>
</g>
<g >
<title>__ip_finish_output (1 samples, 4.55%)</title><rect x="868.2" y="405" width="53.6" height="15.0" fill="rgb(206,158,52)" rx="2" ry="2" />
<text  x="871.18" y="415.5" >__ip_..</text>
</g>
<g >
<title>do_epoll_wait (4 samples, 18.18%)</title><rect x="975.5" y="645" width="214.5" height="15.0" fill="rgb(228,47,41)" rx="2" ry="2" />
<text  x="978.45" y="655.5" >do_epoll_wait</text>
</g>
<g >
<title>__netif_receive_skb_one_core (1 samples, 4.55%)</title><rect x="492.7" y="133" width="53.7" height="15.0" fill="rgb(247,122,14)" rx="2" ry="2" />
<text  x="495.73" y="143.5" >__net..</text>
</g>
<g >
<title>net_rx_action (1 samples, 4.55%)</title><rect x="492.7" y="197" width="53.7" height="15.0" fill="rgb(243,77,21)" rx="2" ry="2" />
<text  x="495.73" y="207.5" >net_r..</text>
</g>
<g >
<title>finish_task_switch.isra.0 (1 samples, 4.55%)</title><rect x="760.9" y="533" width="53.6" height="15.0" fill="rgb(208,111,18)" rx="2" ry="2" />
<text  x="763.91" y="543.5" >finis..</text>
</g>
<g >
<title>do_futex (2 samples, 9.09%)</title><rect x="600.0" y="629" width="107.3" height="15.0" fill="rgb(211,26,1)" rx="2" ry="2" />
<text  x="603.00" y="639.5" >do_futex</text>
</g>
<g >
<title>x64_sys_call (4 samples, 18.18%)</title><rect x="707.3" y="677" width="214.5" height="15.0" fill="rgb(209,53,45)" rx="2" ry="2" />
<text  x="710.27" y="687.5" >x64_sys_call</text>
</g>
<g >
<title>do_epoll_pwait.part.0 (4 samples, 18.18%)</title><rect x="975.5" y="661" width="214.5" height="15.0" fill="rgb(235,212,5)" rx="2" ry="2" />
<text  x="978.45" y="671.5" >do_epoll_pwait.part.0</text>
</g>
<g >
<title>asm_sysvec_hyperv_stimer0 (1 samples, 4.55%)</title><rect x="546.4" y="693" width="53.6" height="15.0" fill="rgb(206,85,5)" rx="2" ry="2" />
<text  x="549.36" y="703.5" >asm_s..</text>
</g>
<g >
<title>[kube-apiserver] (19 samples, 86.36%)</title><rect x="170.9" y="773" width="1019.1" height="15.0" fill="rgb(234,171,11)" rx="2" ry="2" />
<text  x="173.91" y="783.5" >[kube-apiserver]</text>
</g>
<g >
<title>x64_sys_call (1 samples, 4.55%)</title><rect x="439.1" y="533" width="53.6" height="15.0" fill="rgb(232,142,12)" rx="2" ry="2" />
<text  x="442.09" y="543.5" >x64_s..</text>
</g>
<g >
<title>handle_softirqs (1 samples, 4.55%)</title><rect x="546.4" y="629" width="53.6" height="15.0" fill="rgb(216,210,15)" rx="2" ry="2" />
<text  x="549.36" y="639.5" >handl..</text>
</g>
<g >
<title>entry_SYSCALL_64_after_hwframe (5 samples, 22.73%)</title><rect x="921.8" y="725" width="268.2" height="15.0" fill="rgb(215,161,23)" rx="2" ry="2" />
<text  x="924.82" y="735.5" >entry_SYSCALL_64_after_hwframe</text>
</g>
<g >
<title>sock_write_iter (1 samples, 4.55%)</title><rect x="868.2" y="613" width="53.6" height="15.0" fill="rgb(239,25,3)" rx="2" ry="2" />
<text  x="871.18" y="623.5" >sock_..</text>
</g>
<g >
<title>schedule (1 samples, 4.55%)</title><rect x="439.1" y="421" width="53.6" height="15.0" fill="rgb(220,143,10)" rx="2" ry="2" />
<text  x="442.09" y="431.5" >sched..</text>
</g>
<g >
<title>do_syscall_64 (1 samples, 4.55%)</title><rect x="439.1" y="549" width="53.6" height="15.0" fill="rgb(246,103,19)" rx="2" ry="2" />
<text  x="442.09" y="559.5" >do_sy..</text>
</g>
<g >
<title>wake_up_q (2 samples, 9.09%)</title><rect x="600.0" y="597" width="107.3" height="15.0" fill="rgb(210,187,49)" rx="2" ry="2" />
<text  x="603.00" y="607.5" >wake_up_q</text>
</g>
<g >
<title>do_syscall_64 (5 samples, 22.73%)</title><rect x="921.8" y="709" width="268.2" height="15.0" fill="rgb(246,134,16)" rx="2" ry="2" />
<text  x="924.82" y="719.5" >do_syscall_64</text>
</g>
<g >
<title>tcp_push (1 samples, 4.55%)</title><rect x="868.2" y="549" width="53.6" height="15.0" fill="rgb(247,200,28)" rx="2" ry="2" />
<text  x="871.18" y="559.5" >tcp_p..</text>
</g>
<g >
<title>__napi_poll (1 samples, 4.55%)</title><rect x="492.7" y="181" width="53.7" height="15.0" fill="rgb(230,123,53)" rx="2" ry="2" />
<text  x="495.73" y="191.5" >__nap..</text>
</g>
<g >
<title>__x64_sys_epoll_pwait (3 samples, 13.64%)</title><rect x="707.3" y="661" width="160.9" height="15.0" fill="rgb(212,156,5)" rx="2" ry="2" />
<text  x="710.27" y="671.5" >__x64_sys_epoll_pwait</text>
</g>
<g >
<title>__tcp_push_pending_frames (1 samples, 4.55%)</title><rect x="868.2" y="533" width="53.6" height="15.0" fill="rgb(242,0,33)" rx="2" ry="2" />
<text  x="871.18" y="543.5" >__tcp..</text>
</g>
<g >
<title>entry_SYSCALL_64_after_hwframe (1 samples, 4.55%)</title><rect x="439.1" y="565" width="53.6" height="15.0" fill="rgb(242,194,43)" rx="2" ry="2" />
<text  x="442.09" y="575.5" >entry..</text>
</g>
<g >
<title>neigh_hh_output (1 samples, 4.55%)</title><rect x="868.2" y="373" width="53.6" height="15.0" fill="rgb(247,16,16)" rx="2" ry="2" />
<text  x="871.18" y="383.5" >neigh..</text>
</g>
<g >
<title>[kube-apiserver] (1 samples, 4.55%)</title><rect x="439.1" y="597" width="53.6" height="15.0" fill="rgb(211,8,25)" rx="2" ry="2" />
<text  x="442.09" y="607.5" >[kube..</text>
</g>
<g >
<title>schedule_hrtimeout_range_clock (1 samples, 4.55%)</title><rect x="439.1" y="437" width="53.6" height="15.0" fill="rgb(214,201,20)" rx="2" ry="2" />
<text  x="442.09" y="447.5" >sched..</text>
</g>
<g >
<title>run_rebalance_domains (1 samples, 4.55%)</title><rect x="546.4" y="613" width="53.6" height="15.0" fill="rgb(233,76,28)" rx="2" ry="2" />
<text  x="549.36" y="623.5" >run_r..</text>
</g>
<g >
<title>ip_local_deliver (1 samples, 4.55%)</title><rect x="492.7" y="101" width="53.7" height="15.0" fill="rgb(232,128,30)" rx="2" ry="2" />
<text  x="495.73" y="111.5" >ip_lo..</text>
</g>
<g >
<title>process_backlog (1 samples, 4.55%)</title><rect x="492.7" y="165" width="53.7" height="15.0" fill="rgb(207,111,21)" rx="2" ry="2" />
<text  x="495.73" y="175.5" >proce..</text>
</g>
<g >
<title>vfs_write (1 samples, 4.55%)</title><rect x="492.7" y="549" width="53.7" height="15.0" fill="rgb(237,70,10)" rx="2" ry="2" />
<text  x="495.73" y="559.5" >vfs_w..</text>
</g>
<g >
<title>__x64_sys_write (1 samples, 4.55%)</title><rect x="492.7" y="581" width="53.7" height="15.0" fill="rgb(213,226,24)" rx="2" ry="2" />
<text  x="495.73" y="591.5" >__x64..</text>
</g>
<g >
<title>finish_task_switch.isra.0 (4 samples, 18.18%)</title><rect x="975.5" y="549" width="214.5" height="15.0" fill="rgb(218,75,29)" rx="2" ry="2" />
<text  x="978.45" y="559.5" >finish_task_switch.isra.0</text>
</g>
<g >
<title>kube-apiserver (22 samples, 100.00%)</title><rect x="10.0" y="917" width="1180.0" height="15.0" fill="rgb(245,191,43)" rx="2" ry="2" />
<text  x="13.00" y="927.5" >kube-apiserver</text>
</g>
<g >
<title>ip_local_deliver_finish (1 samples, 4.55%)</title><rect x="492.7" y="85" width="53.7" height="15.0" fill="rgb(207,220,27)" rx="2" ry="2" />
<text  x="495.73" y="95.5" >ip_lo..</text>
</g>
<g >
<title>x64_sys_call (2 samples, 9.09%)</title><rect x="600.0" y="661" width="107.3" height="15.0" fill="rgb(231,181,8)" rx="2" ry="2" />
<text  x="603.00" y="671.5" >x64_sys_call</text>
</g>
<g >
<title>irq_exit_rcu (1 samples, 4.55%)</title><rect x="546.4" y="661" width="53.6" height="15.0" fill="rgb(217,80,13)" rx="2" ry="2" />
<text  x="549.36" y="671.5" >irq_e..</text>
</g>
<g >
<title>do_epoll_wait (1 samples, 4.55%)</title><rect x="439.1" y="485" width="53.6" height="15.0" fill="rgb(210,185,50)" rx="2" ry="2" />
<text  x="442.09" y="495.5" >do_ep..</text>
</g>
<g >
<title>__tcp_transmit_skb (1 samples, 4.55%)</title><rect x="492.7" y="421" width="53.7" height="15.0" fill="rgb(250,152,14)" rx="2" ry="2" />
<text  x="495.73" y="431.5" >__tcp..</text>
</g>
<g >
<title>__dev_queue_xmit (1 samples, 4.55%)</title><rect x="492.7" y="277" width="53.7" height="15.0" fill="rgb(212,131,26)" rx="2" ry="2" />
<text  x="495.73" y="287.5" >__dev..</text>
</g>
<g >
<title>[kube-apiserver] (1 samples, 4.55%)</title><rect x="439.1" y="581" width="53.6" height="15.0" fill="rgb(215,39,35)" rx="2" ry="2" />
<text  x="442.09" y="591.5" >[kube..</text>
</g>
<g >
<title>handle_softirqs (1 samples, 4.55%)</title><rect x="492.7" y="213" width="53.7" height="15.0" fill="rgb(252,168,6)" rx="2" ry="2" />
<text  x="495.73" y="223.5" >handl..</text>
</g>
<g >
<title>schedule (1 samples, 4.55%)</title><rect x="760.9" y="565" width="53.6" height="15.0" fill="rgb(239,112,8)" rx="2" ry="2" />
<text  x="763.91" y="575.5" >sched..</text>
</g>
<g >
<title>[kube-apiserver] (2 samples, 9.09%)</title><rect x="439.1" y="677" width="107.3" height="15.0" fill="rgb(252,21,40)" rx="2" ry="2" />
<text  x="442.09" y="687.5" >[kube-apiserv..</text>
</g>
<g >
<title>__x64_sys_epoll_pwait (4 samples, 18.18%)</title><rect x="975.5" y="677" width="214.5" height="15.0" fill="rgb(221,96,28)" rx="2" ry="2" />
<text  x="978.45" y="687.5" >__x64_sys_epoll_pwait</text>
</g>
<g >
<title>schedule_hrtimeout_range_clock (4 samples, 18.18%)</title><rect x="975.5" y="597" width="214.5" height="15.0" fill="rgb(215,213,26)" rx="2" ry="2" />
<text  x="978.45" y="607.5" >schedule_hrtimeout_range_clock</text>
</g>
<g >
<title>sock_write_iter (1 samples, 4.55%)</title><rect x="492.7" y="533" width="53.7" height="15.0" fill="rgb(208,197,14)" rx="2" ry="2" />
<text  x="495.73" y="543.5" >sock_..</text>
</g>
<g >
<title>set_normalized_timespec64 (1 samples, 4.55%)</title><rect x="814.5" y="581" width="53.7" height="15.0" fill="rgb(232,33,38)" rx="2" ry="2" />
<text  x="817.55" y="591.5" >set_n..</text>
</g>
<g >
<title>ep_poll (1 samples, 4.55%)</title><rect x="439.1" y="469" width="53.6" height="15.0" fill="rgb(254,81,46)" rx="2" ry="2" />
<text  x="442.09" y="479.5" >ep_poll</text>
</g>
<g >
<title>[kube-apiserver] (22 samples, 100.00%)</title><rect x="10.0" y="885" width="1180.0" height="15.0" fill="rgb(249,25,4)" rx="2" ry="2" />
<text  x="13.00" y="895.5" >[kube-apiserver]</text>
</g>
<g >
<title>tcp_write_xmit (1 samples, 4.55%)</title><rect x="868.2" y="517" width="53.6" height="15.0" fill="rgb(223,176,53)" rx="2" ry="2" />
<text  x="871.18" y="527.5" >tcp_w..</text>
</g>
<g >
<title>tcp_v4_rcv (1 samples, 4.55%)</title><rect x="492.7" y="53" width="53.7" height="15.0" fill="rgb(252,83,51)" rx="2" ry="2" />
<text  x="495.73" y="63.5" >tcp_v..</text>
</g>
<g >
<title>[kube-apiserver] (21 samples, 95.45%)</title><rect x="63.6" y="821" width="1126.4" height="15.0" fill="rgb(252,87,40)" rx="2" ry="2" />
<text  x="66.64" y="831.5" >[kube-apiserver]</text>
</g>
<g >
<title>schedule_hrtimeout_range (4 samples, 18.18%)</title><rect x="975.5" y="613" width="214.5" height="15.0" fill="rgb(244,82,14)" rx="2" ry="2" />
<text  x="978.45" y="623.5" >schedule_hrtimeout_range</text>
</g>
<g >
<title>tcp_sendmsg (1 samples, 4.55%)</title><rect x="492.7" y="501" width="53.7" height="15.0" fill="rgb(225,54,34)" rx="2" ry="2" />
<text  x="495.73" y="511.5" >tcp_s..</text>
</g>
<g >
<title>__tcp_push_pending_frames (1 samples, 4.55%)</title><rect x="492.7" y="453" width="53.7" height="15.0" fill="rgb(206,81,39)" rx="2" ry="2" />
<text  x="495.73" y="463.5" >__tcp..</text>
</g>
<g >
<title>loopback_xmit (1 samples, 4.55%)</title><rect x="868.2" y="325" width="53.6" height="15.0" fill="rgb(236,112,16)" rx="2" ry="2" />
<text  x="871.18" y="335.5" >loopb..</text>
</g>
<g >
<title>__dev_queue_xmit (1 samples, 4.55%)</title><rect x="868.2" y="357" width="53.6" height="15.0" fill="rgb(212,122,48)" rx="2" ry="2" />
<text  x="871.18" y="367.5" >__dev..</text>
</g>
<g >
<title>__x64_sys_futex (2 samples, 9.09%)</title><rect x="600.0" y="645" width="107.3" height="15.0" fill="rgb(208,46,24)" rx="2" ry="2" />
<text  x="603.00" y="655.5" >__x64_sys_futex</text>
</g>
<g >
<title>__do_softirq (1 samples, 4.55%)</title><rect x="492.7" y="229" width="53.7" height="15.0" fill="rgb(242,174,5)" rx="2" ry="2" />
<text  x="495.73" y="239.5" >__do_..</text>
</g>
<g >
<title>ip_finish_output2 (1 samples, 4.55%)</title><rect x="492.7" y="309" width="53.7" height="15.0" fill="rgb(244,200,28)" rx="2" ry="2" />
<text  x="495.73" y="319.5" >ip_fi..</text>
</g>
<g >
<title>[kube-apiserver] (18 samples, 81.82%)</title><rect x="224.5" y="757" width="965.5" height="15.0" fill="rgb(252,9,23)" rx="2" ry="2" />
<text  x="227.55" y="767.5" >[kube-apiserver]</text>
</g>
<g >
<title>[kube-apiserver] (22 samples, 100.00%)</title><rect x="10.0" y="901" width="1180.0" height="15.0" fill="rgb(233,67,41)" rx="2" ry="2" />
<text  x="13.00" y="911.5" >[kube-apiserver]</text>
</g>
<g >
<title>finish_task_switch.isra.0 (1 samples, 4.55%)</title><rect x="439.1" y="389" width="53.6" height="15.0" fill="rgb(251,128,25)" rx="2" ry="2" />
<text  x="442.09" y="399.5" >finis..</text>
</g>
<g >
<title>__netif_receive_skb (1 samples, 4.55%)</title><rect x="492.7" y="149" width="53.7" height="15.0" fill="rgb(246,130,51)" rx="2" ry="2" />
<text  x="495.73" y="159.5" >__net..</text>
</g>
<g >
<title>__local_bh_enable_ip (1 samples, 4.55%)</title><rect x="492.7" y="261" width="53.7" height="15.0" fill="rgb(214,186,3)" rx="2" ry="2" />
<text  x="495.73" y="271.5" >__loc..</text>
</g>
<g >
<title>update_blocked_averages (1 samples, 4.55%)</title><rect x="546.4" y="597" width="53.6" height="15.0" fill="rgb(234,160,40)" rx="2" ry="2" />
<text  x="549.36" y="607.5" >updat..</text>
</g>
<g >
<title>[kube-apiserver] (2 samples, 9.09%)</title><rect x="439.1" y="661" width="107.3" height="15.0" fill="rgb(253,3,3)" rx="2" ry="2" />
<text  x="442.09" y="671.5" >[kube-apiserv..</text>
</g>
<g >
<title>tcp_sendmsg (1 samples, 4.55%)</title><rect x="868.2" y="581" width="53.6" height="15.0" fill="rgb(220,108,0)" rx="2" ry="2" />
<text  x="871.18" y="591.5" >tcp_s..</text>
</g>
<g >
<title>do_syscall_64 (4 samples, 18.18%)</title><rect x="707.3" y="693" width="214.5" height="15.0" fill="rgb(229,161,17)" rx="2" ry="2" />
<text  x="710.27" y="703.5" >do_syscall_64</text>
</g>
<g >
<title>netif_rx_internal (1 samples, 4.55%)</title><rect x="868.2" y="293" width="53.6" height="15.0" fill="rgb(214,164,51)" rx="2" ry="2" />
<text  x="871.18" y="303.5" >netif..</text>
</g>
<g >
<title>do_softirq (1 samples, 4.55%)</title><rect x="492.7" y="245" width="53.7" height="15.0" fill="rgb(238,60,21)" rx="2" ry="2" />
<text  x="495.73" y="255.5" >do_so..</text>
</g>
<g >
<title>do_syscall_64 (1 samples, 4.55%)</title><rect x="492.7" y="613" width="53.7" height="15.0" fill="rgb(219,81,51)" rx="2" ry="2" />
<text  x="495.73" y="623.5" >do_sy..</text>
</g>
<g >
<title>tcp_push (1 samples, 4.55%)</title><rect x="492.7" y="469" width="53.7" height="15.0" fill="rgb(217,53,53)" rx="2" ry="2" />
<text  x="495.73" y="479.5" >tcp_p..</text>
</g>
<g >
<title>tcp_write_xmit (1 samples, 4.55%)</title><rect x="492.7" y="437" width="53.7" height="15.0" fill="rgb(246,198,16)" rx="2" ry="2" />
<text  x="495.73" y="447.5" >tcp_w..</text>
</g>
<g >
<title>[kube-apiserver] (21 samples, 95.45%)</title><rect x="63.6" y="853" width="1126.4" height="15.0" fill="rgb(253,68,2)" rx="2" ry="2" />
<text  x="66.64" y="863.5" >[kube-apiserver]</text>
</g>
<g >
<title>ep_poll (3 samples, 13.64%)</title><rect x="707.3" y="613" width="160.9" height="15.0" fill="rgb(240,95,5)" rx="2" ry="2" />
<text  x="710.27" y="623.5" >ep_poll</text>
</g>
<g >
<title>schedule (4 samples, 18.18%)</title><rect x="975.5" y="581" width="214.5" height="15.0" fill="rgb(213,170,41)" rx="2" ry="2" />
<text  x="978.45" y="591.5" >schedule</text>
</g>
<g >
<title>ip_local_out (1 samples, 4.55%)</title><rect x="868.2" y="453" width="53.6" height="15.0" fill="rgb(239,119,28)" rx="2" ry="2" />
<text  x="871.18" y="463.5" >ip_lo..</text>
</g>
<g >
<title>[kube-apiserver] (16 samples, 72.73%)</title><rect x="331.8" y="741" width="858.2" height="15.0" fill="rgb(220,105,23)" rx="2" ry="2" />
<text  x="334.82" y="751.5" >[kube-apiserver]</text>
</g>
<g >
<title>_raw_spin_unlock_irqrestore (2 samples, 9.09%)</title><rect x="600.0" y="581" width="107.3" height="15.0" fill="rgb(232,69,15)" rx="2" ry="2" />
<text  x="603.00" y="591.5" >_raw_spin_unl..</text>
</g>
<g >
<title>entry_SYSCALL_64_after_hwframe (1 samples, 4.55%)</title><rect x="492.7" y="629" width="53.7" height="15.0" fill="rgb(236,78,43)" rx="2" ry="2" />
<text  x="495.73" y="639.5" >entry..</text>
</g>
<g >
<title>ip_queue_xmit (1 samples, 4.55%)</title><rect x="492.7" y="405" width="53.7" height="15.0" fill="rgb(229,28,11)" rx="2" ry="2" />
<text  x="495.73" y="415.5" >ip_qu..</text>
</g>
<g >
<title>[kube-apiserver] (2 samples, 9.09%)</title><rect x="439.1" y="693" width="107.3" height="15.0" fill="rgb(233,110,17)" rx="2" ry="2" />
<text  x="442.09" y="703.5" >[kube-apiserv..</text>
</g>
<g >
<title>ip_protocol_deliver_rcu (1 samples, 4.55%)</title><rect x="492.7" y="69" width="53.7" height="15.0" fill="rgb(219,129,5)" rx="2" ry="2" />
<text  x="495.73" y="79.5" >ip_pr..</text>
</g>
<g >
<title>neigh_hh_output (1 samples, 4.55%)</title><rect x="492.7" y="293" width="53.7" height="15.0" fill="rgb(229,61,4)" rx="2" ry="2" />
<text  x="495.73" y="303.5" >neigh..</text>
</g>
<g >
<title>__ip_queue_xmit (1 samples, 4.55%)</title><rect x="492.7" y="389" width="53.7" height="15.0" fill="rgb(212,190,24)" rx="2" ry="2" />
<text  x="495.73" y="399.5" >__ip_..</text>
</g>
<g >
<title>ip_finish_output (1 samples, 4.55%)</title><rect x="492.7" y="341" width="53.7" height="15.0" fill="rgb(229,137,1)" rx="2" ry="2" />
<text  x="495.73" y="351.5" >ip_fi..</text>
</g>
<g >
<title>vfs_write (1 samples, 4.55%)</title><rect x="868.2" y="629" width="53.6" height="15.0" fill="rgb(215,35,26)" rx="2" ry="2" />
<text  x="871.18" y="639.5" >vfs_w..</text>
</g>
</g>
</svg>
